<mxfile host="app.diagrams.net" modified="2023-01-16T06:04:54.988Z" agent="5.0 (Macintosh; Intel Mac OS X 10_15_7) AppleWebKit/537.36 (KHTML, like Gecko) Chrome/108.0.0.0 Safari/537.36" etag="fOiFUf9xPUGDdBeduR4u" version="20.6.0" type="github">
  <diagram name="Page-1" id="74e2e168-ea6b-b213-b513-2b3c1d86103e">
    <mxGraphModel dx="2197" dy="703" grid="1" gridSize="10" guides="1" tooltips="1" connect="1" arrows="1" fold="1" page="1" pageScale="1" pageWidth="1100" pageHeight="850" background="none" math="0" shadow="0">
      <root>
        <mxCell id="0" />
        <mxCell id="1" parent="0" />
        <mxCell id="77e6c97f196da883-1" value="Pool" style="swimlane;html=1;childLayout=stackLayout;startSize=20;rounded=0;shadow=0;labelBackgroundColor=none;strokeWidth=1;fontFamily=Verdana;fontSize=8;align=center;" parent="1" vertex="1">
          <mxGeometry x="10" y="30" width="1120" height="750" as="geometry" />
        </mxCell>
        <mxCell id="77e6c97f196da883-2" value="scanner" style="swimlane;html=1;startSize=20;dashed=1;" parent="77e6c97f196da883-1" vertex="1">
          <mxGeometry y="20" width="160" height="730" as="geometry" />
        </mxCell>
        <mxCell id="gojBhNu8-mffjnpDz7BF-5" value="PartNumber" style="rounded=1;whiteSpace=wrap;html=1;shadow=0;labelBackgroundColor=none;strokeWidth=1;fontFamily=Verdana;fontSize=8;align=center;" vertex="1" parent="77e6c97f196da883-2">
          <mxGeometry x="30" y="290" width="100" height="60" as="geometry" />
        </mxCell>
        <mxCell id="gojBhNu8-mffjnpDz7BF-18" value="wait input" style="rounded=1;whiteSpace=wrap;html=1;shadow=0;labelBackgroundColor=none;strokeWidth=1;fontFamily=Verdana;fontSize=8;align=center;" vertex="1" parent="77e6c97f196da883-2">
          <mxGeometry x="40" y="80" width="70" height="40" as="geometry" />
        </mxCell>
        <mxCell id="77e6c97f196da883-3" value="Durr device" style="swimlane;html=1;startSize=20;dashed=1;" parent="77e6c97f196da883-1" vertex="1">
          <mxGeometry x="160" y="20" width="160" height="730" as="geometry" />
        </mxCell>
        <mxCell id="77e6c97f196da883-11" value="PN + Ping command" style="rounded=1;whiteSpace=wrap;html=1;shadow=0;labelBackgroundColor=none;strokeWidth=1;fontFamily=Verdana;fontSize=8;align=center;" parent="77e6c97f196da883-3" vertex="1">
          <mxGeometry x="40" y="290" width="100" height="60" as="geometry" />
        </mxCell>
        <mxCell id="gojBhNu8-mffjnpDz7BF-17" value="" style="rounded=1;whiteSpace=wrap;html=1;shadow=0;labelBackgroundColor=none;strokeWidth=1;fontFamily=Verdana;fontSize=8;align=center;" vertex="1" parent="77e6c97f196da883-3">
          <mxGeometry x="50" y="80" width="60" height="40" as="geometry" />
        </mxCell>
        <mxCell id="gojBhNu8-mffjnpDz7BF-32" value="PN + lock command" style="rounded=1;whiteSpace=wrap;html=1;shadow=0;labelBackgroundColor=none;strokeWidth=1;fontFamily=Verdana;fontSize=8;align=center;" vertex="1" parent="77e6c97f196da883-3">
          <mxGeometry x="30" y="580" width="100" height="60" as="geometry" />
        </mxCell>
        <mxCell id="77e6c97f196da883-4" value="Vehicle Relay" style="swimlane;html=1;startSize=20;dashed=1;" parent="77e6c97f196da883-1" vertex="1">
          <mxGeometry x="320" y="20" width="160" height="730" as="geometry" />
        </mxCell>
        <mxCell id="gojBhNu8-mffjnpDz7BF-3" value="PN + Ping command" style="rounded=1;whiteSpace=wrap;html=1;shadow=0;labelBackgroundColor=none;strokeWidth=1;fontFamily=Verdana;fontSize=8;align=center;" vertex="1" parent="77e6c97f196da883-4">
          <mxGeometry x="40" y="290" width="100" height="60" as="geometry" />
        </mxCell>
        <mxCell id="gojBhNu8-mffjnpDz7BF-14" value="Ping connected" style="rounded=1;whiteSpace=wrap;html=1;shadow=0;labelBackgroundColor=none;strokeWidth=1;fontFamily=Verdana;fontSize=8;align=center;" vertex="1" parent="77e6c97f196da883-4">
          <mxGeometry x="40" y="485" width="100" height="60" as="geometry" />
        </mxCell>
        <mxCell id="gojBhNu8-mffjnpDz7BF-20" value="" style="rounded=1;whiteSpace=wrap;html=1;shadow=0;labelBackgroundColor=none;strokeWidth=1;fontFamily=Verdana;fontSize=8;align=center;" vertex="1" parent="77e6c97f196da883-4">
          <mxGeometry x="40" y="80" width="60" height="40" as="geometry" />
        </mxCell>
        <mxCell id="gojBhNu8-mffjnpDz7BF-38" value="PN + lock command" style="rounded=1;whiteSpace=wrap;html=1;shadow=0;labelBackgroundColor=none;strokeWidth=1;fontFamily=Verdana;fontSize=8;align=center;" vertex="1" parent="77e6c97f196da883-4">
          <mxGeometry x="30" y="580" width="100" height="60" as="geometry" />
        </mxCell>
        <mxCell id="77e6c97f196da883-5" value="Kafka" style="swimlane;html=1;startSize=20;dashed=1;" parent="77e6c97f196da883-1" vertex="1">
          <mxGeometry x="480" y="20" width="160" height="730" as="geometry" />
        </mxCell>
        <mxCell id="gojBhNu8-mffjnpDz7BF-2" value="msg: enter station" style="rounded=1;whiteSpace=wrap;html=1;shadow=0;labelBackgroundColor=none;strokeWidth=1;fontFamily=Verdana;fontSize=8;align=center;" vertex="1" parent="77e6c97f196da883-5">
          <mxGeometry x="40" y="290" width="100" height="60" as="geometry" />
        </mxCell>
        <mxCell id="gojBhNu8-mffjnpDz7BF-22" value="http" style="rounded=1;whiteSpace=wrap;html=1;shadow=0;labelBackgroundColor=none;strokeWidth=1;fontFamily=Verdana;fontSize=8;align=center;" vertex="1" parent="77e6c97f196da883-5">
          <mxGeometry x="45" y="80" width="70" height="40" as="geometry" />
        </mxCell>
        <mxCell id="77e6c97f196da883-26" style="edgeStyle=orthogonalEdgeStyle;rounded=1;html=1;labelBackgroundColor=none;startArrow=none;startFill=0;startSize=5;endArrow=classicThin;endFill=1;endSize=5;jettySize=auto;orthogonalLoop=1;strokeWidth=1;fontFamily=Verdana;fontSize=8" parent="77e6c97f196da883-1" target="77e6c97f196da883-11" edge="1">
          <mxGeometry relative="1" as="geometry">
            <mxPoint x="130" y="340" as="sourcePoint" />
          </mxGeometry>
        </mxCell>
        <mxCell id="gojBhNu8-mffjnpDz7BF-6" style="edgeStyle=orthogonalEdgeStyle;rounded=0;orthogonalLoop=1;jettySize=auto;html=1;exitX=1;exitY=0.5;exitDx=0;exitDy=0;entryX=0;entryY=0.5;entryDx=0;entryDy=0;" edge="1" parent="77e6c97f196da883-1" source="77e6c97f196da883-11" target="gojBhNu8-mffjnpDz7BF-3">
          <mxGeometry relative="1" as="geometry" />
        </mxCell>
        <mxCell id="gojBhNu8-mffjnpDz7BF-33" value="ws" style="edgeLabel;html=1;align=center;verticalAlign=middle;resizable=0;points=[];" vertex="1" connectable="0" parent="gojBhNu8-mffjnpDz7BF-6">
          <mxGeometry x="-0.0603" y="1" relative="1" as="geometry">
            <mxPoint as="offset" />
          </mxGeometry>
        </mxCell>
        <mxCell id="gojBhNu8-mffjnpDz7BF-7" style="edgeStyle=orthogonalEdgeStyle;rounded=0;orthogonalLoop=1;jettySize=auto;html=1;exitX=1;exitY=0.5;exitDx=0;exitDy=0;" edge="1" parent="77e6c97f196da883-1" source="gojBhNu8-mffjnpDz7BF-3" target="gojBhNu8-mffjnpDz7BF-2">
          <mxGeometry relative="1" as="geometry" />
        </mxCell>
        <mxCell id="gojBhNu8-mffjnpDz7BF-9" style="edgeStyle=orthogonalEdgeStyle;rounded=0;orthogonalLoop=1;jettySize=auto;html=1;exitX=1;exitY=0.5;exitDx=0;exitDy=0;entryX=0;entryY=0.5;entryDx=0;entryDy=0;" edge="1" parent="77e6c97f196da883-1" source="gojBhNu8-mffjnpDz7BF-3" target="gojBhNu8-mffjnpDz7BF-8">
          <mxGeometry relative="1" as="geometry">
            <Array as="points">
              <mxPoint x="480" y="340" />
              <mxPoint x="480" y="425" />
            </Array>
          </mxGeometry>
        </mxCell>
        <mxCell id="gojBhNu8-mffjnpDz7BF-12" style="edgeStyle=orthogonalEdgeStyle;rounded=0;orthogonalLoop=1;jettySize=auto;html=1;entryX=0;entryY=0.5;entryDx=0;entryDy=0;" edge="1" parent="77e6c97f196da883-1" source="gojBhNu8-mffjnpDz7BF-8" target="gojBhNu8-mffjnpDz7BF-11">
          <mxGeometry relative="1" as="geometry" />
        </mxCell>
        <mxCell id="gojBhNu8-mffjnpDz7BF-15" style="edgeStyle=orthogonalEdgeStyle;rounded=0;orthogonalLoop=1;jettySize=auto;html=1;entryX=1;entryY=0.5;entryDx=0;entryDy=0;" edge="1" parent="77e6c97f196da883-1" source="gojBhNu8-mffjnpDz7BF-11" target="gojBhNu8-mffjnpDz7BF-13">
          <mxGeometry relative="1" as="geometry">
            <Array as="points">
              <mxPoint x="900" y="535" />
            </Array>
          </mxGeometry>
        </mxCell>
        <mxCell id="gojBhNu8-mffjnpDz7BF-16" style="edgeStyle=orthogonalEdgeStyle;rounded=0;orthogonalLoop=1;jettySize=auto;html=1;entryX=1;entryY=0.5;entryDx=0;entryDy=0;" edge="1" parent="77e6c97f196da883-1" source="gojBhNu8-mffjnpDz7BF-13" target="gojBhNu8-mffjnpDz7BF-14">
          <mxGeometry relative="1" as="geometry" />
        </mxCell>
        <mxCell id="77e6c97f196da883-6" value="Hermes" style="swimlane;html=1;startSize=20;dashed=1;" parent="77e6c97f196da883-1" vertex="1">
          <mxGeometry x="640" y="20" width="160" height="730" as="geometry">
            <mxRectangle x="640" y="20" width="40" height="730" as="alternateBounds" />
          </mxGeometry>
        </mxCell>
        <mxCell id="gojBhNu8-mffjnpDz7BF-8" value="Ping command" style="rounded=1;whiteSpace=wrap;html=1;shadow=0;labelBackgroundColor=none;strokeWidth=1;fontFamily=Verdana;fontSize=8;align=center;" vertex="1" parent="77e6c97f196da883-6">
          <mxGeometry x="40" y="375" width="100" height="60" as="geometry" />
        </mxCell>
        <mxCell id="gojBhNu8-mffjnpDz7BF-13" value="Ping connected" style="rounded=1;whiteSpace=wrap;html=1;shadow=0;labelBackgroundColor=none;strokeWidth=1;fontFamily=Verdana;fontSize=8;align=center;" vertex="1" parent="77e6c97f196da883-6">
          <mxGeometry x="40" y="485" width="100" height="60" as="geometry" />
        </mxCell>
        <mxCell id="77e6c97f196da883-7" value="Vehicle" style="swimlane;html=1;startSize=20;dashed=1;" parent="77e6c97f196da883-1" vertex="1">
          <mxGeometry x="800" y="20" width="160" height="730" as="geometry" />
        </mxCell>
        <mxCell id="gojBhNu8-mffjnpDz7BF-11" value="Ping command" style="rounded=1;whiteSpace=wrap;html=1;shadow=0;labelBackgroundColor=none;strokeWidth=1;fontFamily=Verdana;fontSize=8;align=center;" vertex="1" parent="77e6c97f196da883-7">
          <mxGeometry x="50" y="375" width="100" height="60" as="geometry" />
        </mxCell>
        <mxCell id="gojBhNu8-mffjnpDz7BF-19" value="device" style="edgeStyle=orthogonalEdgeStyle;rounded=0;orthogonalLoop=1;jettySize=auto;html=1;exitX=1;exitY=0.5;exitDx=0;exitDy=0;entryX=0;entryY=0.5;entryDx=0;entryDy=0;" edge="1" parent="77e6c97f196da883-1" source="gojBhNu8-mffjnpDz7BF-18" target="gojBhNu8-mffjnpDz7BF-17">
          <mxGeometry relative="1" as="geometry" />
        </mxCell>
        <mxCell id="gojBhNu8-mffjnpDz7BF-21" value="&lt;span style=&quot;font-family: Verdana; font-size: 8px; background-color: rgb(248, 249, 250);&quot;&gt;ws&lt;/span&gt;" style="edgeStyle=orthogonalEdgeStyle;rounded=0;orthogonalLoop=1;jettySize=auto;html=1;entryX=1;entryY=0.5;entryDx=0;entryDy=0;startArrow=classic;startFill=1;" edge="1" parent="77e6c97f196da883-1" source="gojBhNu8-mffjnpDz7BF-20" target="gojBhNu8-mffjnpDz7BF-17">
          <mxGeometry relative="1" as="geometry" />
        </mxCell>
        <mxCell id="gojBhNu8-mffjnpDz7BF-28" style="edgeStyle=orthogonalEdgeStyle;rounded=0;orthogonalLoop=1;jettySize=auto;html=1;exitX=1;exitY=0.5;exitDx=0;exitDy=0;" edge="1" parent="77e6c97f196da883-1" source="gojBhNu8-mffjnpDz7BF-20" target="gojBhNu8-mffjnpDz7BF-22">
          <mxGeometry relative="1" as="geometry" />
        </mxCell>
        <mxCell id="gojBhNu8-mffjnpDz7BF-31" value="broker" style="edgeLabel;html=1;align=center;verticalAlign=middle;resizable=0;points=[];" vertex="1" connectable="0" parent="gojBhNu8-mffjnpDz7BF-28">
          <mxGeometry x="0.2" y="3" relative="1" as="geometry">
            <mxPoint x="-6" y="-7" as="offset" />
          </mxGeometry>
        </mxCell>
        <mxCell id="gojBhNu8-mffjnpDz7BF-39" value="ws???" style="edgeStyle=orthogonalEdgeStyle;rounded=0;orthogonalLoop=1;jettySize=auto;html=1;entryX=0;entryY=0.5;entryDx=0;entryDy=0;startArrow=classicThin;startFill=1;" edge="1" parent="77e6c97f196da883-1" source="gojBhNu8-mffjnpDz7BF-32" target="gojBhNu8-mffjnpDz7BF-38">
          <mxGeometry relative="1" as="geometry" />
        </mxCell>
        <mxCell id="77e6c97f196da883-16" value="" style="rhombus;whiteSpace=wrap;html=1;rounded=0;shadow=0;labelBackgroundColor=none;strokeWidth=1;fontFamily=Verdana;fontSize=8;align=center;" parent="1" vertex="1">
          <mxGeometry x="-100" y="290" width="80" height="60" as="geometry" />
        </mxCell>
        <mxCell id="gojBhNu8-mffjnpDz7BF-25" value="Stationcontroller" style="swimlane;html=1;startSize=20;dashed=1;" vertex="1" parent="1">
          <mxGeometry x="970" y="50" width="160" height="730" as="geometry" />
        </mxCell>
        <mxCell id="gojBhNu8-mffjnpDz7BF-27" value="http" style="rounded=1;whiteSpace=wrap;html=1;shadow=0;labelBackgroundColor=none;strokeWidth=1;fontFamily=Verdana;fontSize=8;align=center;" vertex="1" parent="gojBhNu8-mffjnpDz7BF-25">
          <mxGeometry x="45" y="80" width="70" height="40" as="geometry" />
        </mxCell>
        <mxCell id="gojBhNu8-mffjnpDz7BF-29" style="edgeStyle=orthogonalEdgeStyle;rounded=0;orthogonalLoop=1;jettySize=auto;html=1;exitX=0.5;exitY=1;exitDx=0;exitDy=0;entryX=0.5;entryY=1;entryDx=0;entryDy=0;startArrow=classicThin;startFill=1;" edge="1" parent="1" source="gojBhNu8-mffjnpDz7BF-20" target="gojBhNu8-mffjnpDz7BF-27">
          <mxGeometry relative="1" as="geometry">
            <Array as="points">
              <mxPoint x="400" y="260" />
              <mxPoint x="1050" y="260" />
            </Array>
          </mxGeometry>
        </mxCell>
        <mxCell id="gojBhNu8-mffjnpDz7BF-30" value="API" style="edgeLabel;html=1;align=center;verticalAlign=middle;resizable=0;points=[];" vertex="1" connectable="0" parent="gojBhNu8-mffjnpDz7BF-29">
          <mxGeometry x="-0.0763" y="2" relative="1" as="geometry">
            <mxPoint as="offset" />
          </mxGeometry>
        </mxCell>
        <mxCell id="gojBhNu8-mffjnpDz7BF-42" style="edgeStyle=orthogonalEdgeStyle;rounded=0;orthogonalLoop=1;jettySize=auto;html=1;entryX=0;entryY=0.5;entryDx=0;entryDy=0;startArrow=none;startFill=0;" edge="1" parent="1" source="gojBhNu8-mffjnpDz7BF-40" target="gojBhNu8-mffjnpDz7BF-41">
          <mxGeometry relative="1" as="geometry" />
        </mxCell>
        <mxCell id="gojBhNu8-mffjnpDz7BF-40" value="main()" style="rounded=1;whiteSpace=wrap;html=1;shadow=0;labelBackgroundColor=none;strokeWidth=1;fontFamily=Verdana;fontSize=8;align=center;" vertex="1" parent="1">
          <mxGeometry x="340" y="1060" width="100" height="60" as="geometry" />
        </mxCell>
        <mxCell id="gojBhNu8-mffjnpDz7BF-48" style="edgeStyle=orthogonalEdgeStyle;rounded=0;orthogonalLoop=1;jettySize=auto;html=1;entryX=0;entryY=0.5;entryDx=0;entryDy=0;startArrow=none;startFill=0;" edge="1" parent="1" source="gojBhNu8-mffjnpDz7BF-41" target="gojBhNu8-mffjnpDz7BF-45">
          <mxGeometry relative="1" as="geometry" />
        </mxCell>
        <mxCell id="gojBhNu8-mffjnpDz7BF-49" style="edgeStyle=orthogonalEdgeStyle;rounded=0;orthogonalLoop=1;jettySize=auto;html=1;exitX=1;exitY=0.5;exitDx=0;exitDy=0;entryX=0;entryY=0.5;entryDx=0;entryDy=0;startArrow=none;startFill=0;" edge="1" parent="1" source="gojBhNu8-mffjnpDz7BF-41" target="gojBhNu8-mffjnpDz7BF-43">
          <mxGeometry relative="1" as="geometry" />
        </mxCell>
        <mxCell id="gojBhNu8-mffjnpDz7BF-41" value="newManager()" style="rounded=1;whiteSpace=wrap;html=1;shadow=0;labelBackgroundColor=none;strokeWidth=1;fontFamily=Verdana;fontSize=8;align=center;" vertex="1" parent="1">
          <mxGeometry x="520" y="1060" width="100" height="60" as="geometry" />
        </mxCell>
        <mxCell id="gojBhNu8-mffjnpDz7BF-56" value="" style="edgeStyle=orthogonalEdgeStyle;rounded=0;orthogonalLoop=1;jettySize=auto;html=1;startArrow=none;startFill=0;" edge="1" parent="1" source="gojBhNu8-mffjnpDz7BF-43" target="gojBhNu8-mffjnpDz7BF-55">
          <mxGeometry relative="1" as="geometry" />
        </mxCell>
        <mxCell id="gojBhNu8-mffjnpDz7BF-60" value="" style="edgeStyle=orthogonalEdgeStyle;rounded=0;orthogonalLoop=1;jettySize=auto;html=1;startArrow=none;startFill=0;" edge="1" parent="1" source="gojBhNu8-mffjnpDz7BF-43" target="gojBhNu8-mffjnpDz7BF-59">
          <mxGeometry relative="1" as="geometry" />
        </mxCell>
        <mxCell id="gojBhNu8-mffjnpDz7BF-43" value="maintainEqipmentConnection()" style="rounded=1;whiteSpace=wrap;html=1;shadow=0;labelBackgroundColor=none;strokeWidth=1;fontFamily=Verdana;fontSize=8;align=center;" vertex="1" parent="1">
          <mxGeometry x="720" y="1170" width="100" height="60" as="geometry" />
        </mxCell>
        <mxCell id="gojBhNu8-mffjnpDz7BF-50" style="edgeStyle=orthogonalEdgeStyle;rounded=0;orthogonalLoop=1;jettySize=auto;html=1;entryX=0;entryY=0.5;entryDx=0;entryDy=0;startArrow=none;startFill=0;" edge="1" parent="1" source="gojBhNu8-mffjnpDz7BF-45" target="gojBhNu8-mffjnpDz7BF-47">
          <mxGeometry relative="1" as="geometry" />
        </mxCell>
        <mxCell id="gojBhNu8-mffjnpDz7BF-45" value="SetEquipment()" style="rounded=1;whiteSpace=wrap;html=1;shadow=0;labelBackgroundColor=none;strokeWidth=1;fontFamily=Verdana;fontSize=8;align=center;" vertex="1" parent="1">
          <mxGeometry x="720" y="950" width="100" height="60" as="geometry" />
        </mxCell>
        <mxCell id="gojBhNu8-mffjnpDz7BF-52" value="" style="edgeStyle=orthogonalEdgeStyle;rounded=0;orthogonalLoop=1;jettySize=auto;html=1;startArrow=none;startFill=0;" edge="1" parent="1" source="gojBhNu8-mffjnpDz7BF-47" target="gojBhNu8-mffjnpDz7BF-51">
          <mxGeometry relative="1" as="geometry">
            <Array as="points">
              <mxPoint x="1010" y="1070" />
            </Array>
          </mxGeometry>
        </mxCell>
        <mxCell id="gojBhNu8-mffjnpDz7BF-47" value="receiveEquipmentMessage()" style="rounded=1;whiteSpace=wrap;html=1;shadow=0;labelBackgroundColor=none;strokeWidth=1;fontFamily=Verdana;fontSize=8;align=center;" vertex="1" parent="1">
          <mxGeometry x="960" y="950" width="100" height="60" as="geometry" />
        </mxCell>
        <mxCell id="gojBhNu8-mffjnpDz7BF-51" value="ActionMsgFromEquipment" style="rounded=1;whiteSpace=wrap;html=1;shadow=0;labelBackgroundColor=none;strokeWidth=1;fontFamily=Verdana;fontSize=8;align=center;" vertex="1" parent="1">
          <mxGeometry x="1160" y="1040" width="100" height="60" as="geometry" />
        </mxCell>
        <mxCell id="gojBhNu8-mffjnpDz7BF-54" style="edgeStyle=orthogonalEdgeStyle;rounded=0;orthogonalLoop=1;jettySize=auto;html=1;entryX=0.5;entryY=0;entryDx=0;entryDy=0;startArrow=none;startFill=0;" edge="1" parent="1" source="gojBhNu8-mffjnpDz7BF-53" target="gojBhNu8-mffjnpDz7BF-47">
          <mxGeometry relative="1" as="geometry" />
        </mxCell>
        <mxCell id="gojBhNu8-mffjnpDz7BF-53" value="equiment.subscription()" style="rounded=1;whiteSpace=wrap;html=1;shadow=0;labelBackgroundColor=none;strokeWidth=1;fontFamily=Verdana;fontSize=8;align=center;" vertex="1" parent="1">
          <mxGeometry x="1160" y="880" width="100" height="60" as="geometry" />
        </mxCell>
        <mxCell id="gojBhNu8-mffjnpDz7BF-58" style="edgeStyle=orthogonalEdgeStyle;rounded=0;orthogonalLoop=1;jettySize=auto;html=1;exitX=1;exitY=0.5;exitDx=0;exitDy=0;entryX=0;entryY=0.5;entryDx=0;entryDy=0;startArrow=none;startFill=0;" edge="1" parent="1" source="gojBhNu8-mffjnpDz7BF-55" target="gojBhNu8-mffjnpDz7BF-57">
          <mxGeometry relative="1" as="geometry" />
        </mxCell>
        <mxCell id="gojBhNu8-mffjnpDz7BF-55" value="&lt;span style=&quot;color: rgb(0, 0, 0); font-family: Verdana; font-size: 8px; font-style: normal; font-variant-ligatures: normal; font-variant-caps: normal; font-weight: 400; letter-spacing: normal; orphans: 2; text-align: center; text-indent: 0px; text-transform: none; widows: 2; word-spacing: 0px; -webkit-text-stroke-width: 0px; background-color: rgb(248, 249, 250); text-decoration-thickness: initial; text-decoration-style: initial; text-decoration-color: initial; float: none; display: inline !important;&quot;&gt;!eqipmentConnected()&lt;/span&gt;" style="rounded=1;whiteSpace=wrap;html=1;shadow=0;labelBackgroundColor=none;strokeWidth=1;fontFamily=Verdana;fontSize=8;align=center;" vertex="1" parent="1">
          <mxGeometry x="950" y="1120" width="100" height="60" as="geometry" />
        </mxCell>
        <mxCell id="gojBhNu8-mffjnpDz7BF-57" value="&lt;span style=&quot;color: rgb(0, 0, 0); font-family: Verdana; font-size: 8px; font-style: normal; font-variant-ligatures: normal; font-variant-caps: normal; font-weight: 400; letter-spacing: normal; orphans: 2; text-align: center; text-indent: 0px; text-transform: none; widows: 2; word-spacing: 0px; -webkit-text-stroke-width: 0px; background-color: rgb(248, 249, 250); text-decoration-thickness: initial; text-decoration-style: initial; text-decoration-color: initial; float: none; display: inline !important;&quot;&gt;eqipmentConnect()&lt;/span&gt;" style="rounded=1;whiteSpace=wrap;html=1;shadow=0;labelBackgroundColor=none;strokeWidth=1;fontFamily=Verdana;fontSize=8;align=center;" vertex="1" parent="1">
          <mxGeometry x="1130" y="1120" width="100" height="60" as="geometry" />
        </mxCell>
        <mxCell id="gojBhNu8-mffjnpDz7BF-59" value="addPingrequestID()" style="rounded=1;whiteSpace=wrap;html=1;shadow=0;labelBackgroundColor=none;strokeWidth=1;fontFamily=Verdana;fontSize=8;align=center;" vertex="1" parent="1">
          <mxGeometry x="950" y="1230" width="100" height="60" as="geometry" />
        </mxCell>
      </root>
    </mxGraphModel>
  </diagram>
</mxfile>
